<?xml version="1.0" encoding="utf-8"?>
<!-- Generator: Adobe Illustrator 22.0.0, SVG Export Plug-In . SVG Version: 6.00 Build 0)  -->
<svg version="1.1" id="Layer_1" xmlns="http://www.w3.org/2000/svg" xmlns:xlink="http://www.w3.org/1999/xlink" x="0px" y="0px"
	 width="432px" height="155px" viewBox="0 0 432 155" style="enable-background:new 0 0 432 155;" xml:space="preserve">
<g>
	<path d="M8.4,2.8h28.5c2.3,0,4.2,1.9,4.2,4.2v11.6h0.4C48.1,4.9,61,1.3,80.8,1.3c22.9,0,54.9,1,54.9,43.4v52.2
		c0,2.3-1.9,4.2-4.2,4.2H103c-2.3,0-4.2-1.9-4.2-4.2V44.6c0-9.6-7.7-14.5-23.9-14.5h-8.5c-15.8,0-25.2,7.3-25.2,21.4v45.3
		c0,2.3-1.9,4.2-4.2,4.2H8.4c-2.3,0-4.2-1.9-4.2-4.2V7.1C4.1,4.7,6,2.8,8.4,2.8 M148.3,46.6c0-37.2,18.5-45.3,45.5-45.3h25.8
		c39.3,0,55.5,8.3,55.5,42.4V56c0,2.3-1.9,4.2-4.2,4.2h-81.3c-2.3,0-4.2,1.9-4.2,4.2v1.7c0,10.4,7.3,13.3,22.7,13.3h11.4
		c16,0,19.9-3.5,20.7-7.8c0.4-1.9,2-3.4,4-3.4h26.7c2.3,0,4.2,1.9,4.2,4.2c0,24.7-22,30.1-48.7,30.1h-27.7
		c-24.5,0-50.3-4.6-50.3-46.6V46.6z M234.6,38.3c2.7,0,4.8-2.5,4.2-5.1c-1.7-7.3-8.5-8.8-26.5-8.8c-20.3,0-25.6,1.5-26.7,9.1
		c-0.4,2.5,1.6,4.8,4.2,4.8H234.6z M287.4,40.2c0-32.4,21.8-38.9,40.7-38.9h55.3c18.9,0,40.7,6.5,40.7,38.9v23.5
		c0,32.4-21.8,38.9-40.7,38.9H328c-18.9,0-40.7-6.6-40.7-38.9V40.2z M324.4,56.6c0,14.1,8.3,18.3,25.2,18.3h8.9
		c23.9,0,28.5-3.1,28.5-16.2V45.2c0-13.1-4.6-16.2-28.5-16.2h-8.9c-17,0-25.2,4.2-25.2,18.3V56.6z"/>
	<polygon points="4.9,138.3 8,138.3 21.8,151.6 21.8,138.3 23.8,138.3 23.8,153.4 20.8,153.4 7,140.2 7,153.4 4.9,153.4 	"/>
	<path d="M27.3,143.8c0-3.8,1.3-5.7,5.4-5.7h8.7c4.1,0,5.4,1.8,5.4,5.7v4.1c0,3.8-1.3,5.7-5.4,5.7h-8.7c-4.1,0-5.4-1.8-5.4-5.7
		V143.8z M44.8,143c0-2.6-1.6-3.2-3.5-3.2h-8.3c-2,0-3.6,0.6-3.6,3.2v5.7c0,2.6,1.6,3.2,3.6,3.2h8.3c2,0,3.5-0.6,3.5-3.2V143z"/>
	<path d="M50.3,138.3h12.1c4.4,0,5.1,1.4,5.1,4.3v1.2c0,2.1-1.2,2.7-2.8,2.9v0c2.1,0.4,2.6,1.5,2.6,2.8v3.9h-1.9v-3.3
		c0-2.4-1.1-2.7-3-2.7h-10v6h-2V138.3z M62.2,145.8c2.3,0,3.2-0.6,3.2-2.2v-1.4c0-1.7-0.7-2.2-3.7-2.2h-9.3v5.8H62.2z"/>
	<path d="M70.7,148.7h1.9v1.1c0,1.5,0.8,2.2,3.3,2.2h6.3c3,0,3.8-0.6,3.8-2.8c0-1.9-0.8-2.4-3.3-2.4h-3.9c-6.2,0-8.3-0.4-8.3-4.4
		c0-3.4,2-4.2,6.3-4.2h4.4c5.1,0,6.3,1.3,6.3,4v0.5h-1.9c0-2.4-0.3-2.8-5.7-2.8h-2.2c-3.9,0-5.3,0.2-5.3,2.7c0,1.8,0.6,2.4,3.8,2.4
		h6.1c4,0,5.7,1.1,5.7,3.7v1c0,3.7-3,4-6.1,4h-5.7c-3,0-5.6-0.5-5.6-3.8V148.7z"/>
	<polygon points="91.7,138.3 93.7,138.3 93.7,144.7 96.3,144.7 105.8,138.3 109.1,138.3 109.1,138.4 98.3,145.6 110.1,153.4 
		110.1,153.4 106.5,153.4 96.1,146.4 93.7,146.4 93.7,153.4 91.7,153.4 	"/>
	<polygon points="122.3,138.3 137.2,138.3 137.2,140 124.4,140 124.4,144.8 136.7,144.8 136.7,146.5 124.4,146.5 124.4,151.8 
		137.3,151.8 137.3,153.4 122.3,153.4 	"/>
	<polygon points="140.4,138.3 142.4,138.3 142.4,151.8 154.2,151.8 154.2,153.4 140.4,153.4 	"/>
	<polygon points="156.4,138.3 171.2,138.3 171.2,140 158.4,140 158.4,144.8 170.7,144.8 170.7,146.5 158.4,146.5 158.4,151.8 
		171.3,151.8 171.3,153.4 156.4,153.4 	"/>
	<polygon points="174.4,138.3 176.4,138.3 176.4,144.7 179,144.7 188.5,138.3 191.8,138.3 191.9,138.4 181,145.6 192.9,153.4 
		192.8,153.4 189.2,153.4 178.8,146.4 176.4,146.4 176.4,153.4 174.4,153.4 	"/>
	<polygon points="201,140 193.4,140 193.4,138.3 210.7,138.3 210.7,140 203.1,140 203.1,153.4 201,153.4 	"/>
	<path d="M212.9,138.3H225c4.4,0,5.1,1.4,5.1,4.3v1.2c0,2.1-1.2,2.7-2.8,2.9v0c2.1,0.4,2.6,1.5,2.6,2.8v3.9H228v-3.3
		c0-2.4-1.1-2.7-3-2.7h-10v6h-2V138.3z M224.8,145.8c2.3,0,3.2-0.6,3.2-2.2v-1.4c0-1.7-0.7-2.2-3.7-2.2H215v5.8H224.8z"/>
	<path d="M233.3,143.8c0-3.8,1.3-5.7,5.4-5.7h8.7c4.1,0,5.4,1.8,5.4,5.7v4.1c0,3.8-1.3,5.7-5.4,5.7h-8.7c-4.1,0-5.4-1.8-5.4-5.7
		V143.8z M250.7,143c0-2.6-1.6-3.2-3.5-3.2h-8.3c-2,0-3.6,0.6-3.6,3.2v5.7c0,2.6,1.6,3.2,3.6,3.2h8.3c2,0,3.5-0.6,3.5-3.2V143z"/>
	<path d="M266,143.8c0-3.8,1.3-5.7,5.4-5.7h8.7c4.1,0,5.4,1.8,5.4,5.7v4.1c0,3.8-1.3,5.7-5.4,5.7h-8.7c-4.1,0-5.4-1.8-5.4-5.7V143.8
		z M283.5,143c0-2.6-1.6-3.2-3.5-3.2h-8.3c-2,0-3.6,0.6-3.6,3.2v5.7c0,2.6,1.6,3.2,3.6,3.2h8.3c2,0,3.5-0.6,3.5-3.2V143z"/>
	<path d="M289.1,138.3h12.4c2.8,0,4.3,0.6,4.3,4.1c0,3.4-0.3,5.1-4.7,5.1h-10v5.9h-2V138.3z M303.9,142.2c0-1.8-1-2.2-2.8-2.2h-9.9
		v5.8h10.1c1.6,0,2.6-0.6,2.6-2.1V142.2z"/>
	<polygon points="314.7,140 307.1,140 307.1,138.3 324.4,138.3 324.4,140 316.8,140 316.8,153.4 314.7,153.4 	"/>
	<rect x="326.8" y="138.3" width="2" height="15.1"/>
	<polygon points="333,138.3 335,138.3 335,144.7 337.6,144.7 347.1,138.3 350.4,138.3 350.4,138.4 339.6,145.6 351.4,153.4 
		351.4,153.4 347.8,153.4 337.4,146.4 335,146.4 335,153.4 333,153.4 	"/>
	<polygon points="353.6,138.3 355.6,138.3 355.6,144.7 358.2,144.7 367.7,138.3 371,138.3 371.1,138.4 360.2,145.6 372,153.4 
		372,153.4 368.4,153.4 358,146.4 355.6,146.4 355.6,153.4 353.6,153.4 	"/>
	<path d="M391.5,138.3h2.5l9,15.1h-2.3l-1.9-3.2h-12.1l-1.9,3.2h-2.3L391.5,138.3z M392.8,140l-5.1,8.6h10.1L392.8,140z"/>
	<path d="M405,148.7h1.9v1.1c0,1.5,0.8,2.2,3.3,2.2h6.3c3,0,3.8-0.6,3.8-2.8c0-1.9-0.8-2.4-3.3-2.4h-3.9c-6.2,0-8.3-0.4-8.3-4.4
		c0-3.4,2-4.2,6.3-4.2h4.4c5.1,0,6.3,1.3,6.3,4v0.5h-1.9c0-2.4-0.3-2.8-5.7-2.8h-2.2c-3.9,0-5.3,0.2-5.3,2.7c0,1.8,0.6,2.4,3.8,2.4
		h6.1c4,0,5.7,1.1,5.7,3.7v1c0,3.7-3,4-6.1,4h-5.7c-3,0-5.6-0.5-5.6-3.8V148.7z"/>
	<path d="M421.2,122.1H6.1c-1.1,0-2.1-0.9-2.1-2.1c0-1.1,0.9-2.1,2.1-2.1h415.2c1.1,0,2.1,0.9,2.1,2.1
		C423.3,121.2,422.4,122.1,421.2,122.1"/>
</g>
</svg>
